<svg
  width="204"
  height="206"
  viewBox="0 0 204 206"
  fill="none"
  xmlns="http://www.w3.org/2000/svg"
>
<path
    fill-rule="evenodd"
    clip-rule="evenodd"
    d="M71.8064 124.323C70.8367 124.665 72.3308 125.679 72.8256 125.009C72.4926 124.785 72.1593 124.561 71.8064 124.323ZM112.747 163.177C111.822 162.56 111.39 162.33 111.011 163.304C111.333 164.378 111.93 163.68 112.747 163.177ZM66.7063 144.443C65.801 143.836 65.0371 143.557 64.741 144.596C65.2302 145.918 65.8677 145.209 66.7063 144.443ZM56.2695 126.105C54.6861 126.048 53.3386 127.144 54.5258 128.517C55.3855 127.784 55.6719 127.239 56.2695 126.105ZM48.966 184.928C47.3644 184.988 45.973 184.275 44.7485 184.994C46.1581 186.639 47.1926 186.847 48.966 184.928ZM86.8833 180.328C84.6194 180.046 82.5966 178.553 82.361 181.727C81.1293 185.278 85.3617 181.279 86.8833 180.328ZM20.9133 140.848C21.2448 141.499 20.7403 145.418 22.3668 144.145C23.0282 143.246 26.2642 141.671 24.0648 140.868C22.6269 140.424 20.5756 137.922 20.9133 140.848ZM38.3912 182.736C36.4716 181.22 33.5553 175.828 32.8493 180.538C31.8538 183.538 36.4534 182.192 38.3912 182.736ZM39.7555 135.602C40.3567 136.852 39.8148 140.052 41.7126 139.446C42.4723 138.883 45.758 138.63 44.4142 137.285C43.1894 136.389 41.0582 133.464 39.7555 135.602ZM77.2343 183.551C77.1744 185.916 79.4399 186.241 80.0402 183.873C80.2622 183.355 80.0136 182.575 80.9271 182.424C81.1707 182.384 80.631 179.628 80.3346 179.575C78.2778 179.829 77.1451 181.189 77.2343 183.551ZM52.0104 131.035C38.6108 132.996 47.6421 137.452 49.6186 134.829C50.1772 133.812 53.4518 131.953 52.0104 131.035ZM67.6081 172.522C68.8544 171.31 76.0654 165.899 73.1018 166.334C70.8754 167.852 60.6511 171.555 67.6081 172.522ZM90.4034 167.012C86.6775 167.293 82.6275 169.617 82.7293 173.79C83.5348 175.902 89.2679 168.362 90.4034 167.012ZM83.237 145.832C83.2404 144.361 83.3756 142.755 81.4327 143.829C79.2688 145.884 67.574 144.808 72.6193 147.507C75.888 147.284 83.8542 151.602 83.237 145.832ZM40.8312 177.997C42.1853 175.382 42.0582 172.348 42.9601 169.575C43.0983 167.504 46.34 162.154 44.6858 161.638C41.5361 164.839 38.2952 168.06 36.3202 172.168C34.693 175.027 39.0569 176.189 40.8312 177.997ZM26.6375 162.674C26.2609 155.901 28.2315 148.982 30.028 142.76C27.1261 140.991 24.9538 145.615 22.774 146.972C21.5088 151.648 24.906 158.09 26.6375 162.674ZM80.9739 174.103C81.017 172.583 80.3912 173.394 79.5813 174.185C75.8748 175.208 79.0885 171.51 80.2197 170.211C81.859 168.287 79.9088 161.071 77.2774 165.357C75.0008 170.721 63.9437 173.522 74.3094 175.754C75.1786 176.089 75.9018 176.313 76.6008 175.348C77.2553 174.891 78.4938 174.665 78.37 176.081C78.7197 178.861 81.6644 175.978 80.9739 174.103ZM61.5867 183.179C68.3747 182.159 83.4324 178.937 68.1299 175.497C63.5145 177.156 59.3979 180.834 54.4931 182.321C53.2311 184.141 60.1919 182.784 61.5867 183.179ZM52.3303 153.788C60.9784 149.97 72.6743 148.41 78.7577 157.257C79.3367 158.157 79.7465 158.064 80.1227 157.159C85.5094 147.666 76.5804 153.034 71.2837 149.686C60.5709 144.423 57.8463 140.254 52.3303 153.788ZM29.4667 157.874C29.8071 160.298 31.2913 172.808 35.0115 169.711C36.2259 166.953 38.3533 164.942 40.3625 162.843C41.5594 160.757 46.1256 159.433 45.1781 156.805C42.7083 152.54 40.6468 148.081 39.1441 143.383C31.3499 138.974 30.2253 152.308 29.4667 157.874ZM20.0773 150.329C16.5611 155.331 8.88621 165.428 13.7124 171.028C17.3582 175.455 24.1545 180.861 29.5474 180.694C33.4295 175.166 28.2987 171.35 26.092 166.358C23.1642 161.336 22.106 155.722 20.0773 150.329ZM65.4624 152.338C46.2171 154.38 46.0116 159.942 61.4397 169.756C66.2237 169.499 70.8198 164.653 75.8222 163.371C83.0123 158.491 70.0666 151.628 65.4624 152.338ZM41.4067 142.641C48.2604 158.438 45.14 159.598 54.7832 144.908C55.7498 143.517 55.671 143.305 54.1761 142.629C51.1966 141.79 48.5124 138.138 45.2852 139.988C44.2622 140.792 37.4007 142.275 41.4067 142.641ZM74.8229 187.356C76.9753 187.577 74.373 185.513 74.6069 184.298C74.3409 182.655 74.334 182.607 72.7232 183.291C66.54 186.217 59.792 186.094 53.1238 185.958C51.8105 185.774 50.225 185.509 49.9879 187.211C56.1703 192.122 67.5619 191.003 74.8229 187.356ZM92.2496 175.037C93.3921 173.893 93.9509 174.709 94.4507 173.061C92.2639 165.323 95.5637 163.83 89.247 171.564C88.0853 173.639 82.5519 175.904 83.5634 177.975C87.286 179.919 91.1798 177.869 92.2496 175.037ZM57.5052 122.761C63.3491 100.866 50.2438 122.881 54.7676 123.939C56.0614 123.335 56.8662 123.993 58.0965 123.936C57.9352 123.526 58.53 122.736 57.5052 122.761ZM43.0278 195.942C41.7951 196.225 43.3901 196.833 42.8921 197.166C41.3285 197.878 43.8553 198.019 44.4841 198.459C42.4836 195.434 46.0927 191.931 46.5377 188.722C40.6959 182.254 42.7827 192.267 43.0278 195.942ZM59.2359 174.976C58.8569 173.571 60.8161 172.139 59.1777 170.86C55.5485 168.329 52.1286 165.553 49.2239 162.197C46.469 161.242 44.8837 174.603 43.7938 177.346C42.8227 180.638 49.1385 182.771 51.1773 180.846C53.868 178.675 55.6045 174.892 58.4336 173.29C58.4831 173.958 58.1786 174.789 59.2273 174.989C58.51 176.352 55.558 177.928 56.2082 179.349C59.0708 177.933 63.0181 176.528 65.0903 174.319C63.5035 172.036 60.9856 173.76 59.2359 174.976ZM56.1044 137.677C53.6734 134.26 53.0476 133.867 50.4101 137.323C51.9728 139.466 54.9884 139.691 57.2902 140.682C57.9663 140.868 57.7442 140.371 57.6585 140.031C58.7525 140.056 59.281 139.405 59.5526 138.447C61.1198 138.781 61.7733 137.124 62.9349 136.426C75.7548 129.164 65.1419 130.627 57.1191 130.354C52.2623 131.688 60.7144 136.263 56.1044 137.677ZM37.7951 137.411C36.5318 137.882 34.9398 139.695 35.4507 140.902C38.122 141.012 38.4685 139.478 37.8567 137.244C37.8362 137.299 37.8156 137.355 37.7951 137.411ZM32.1615 139.655C28.8402 139.893 31.4358 142.698 32.2974 139.481C32.2521 139.539 32.2068 139.597 32.1615 139.655ZM44.8639 201.929C36.5429 200.76 43.2223 188.891 39.2325 185.128C31.1191 184.7 31.526 184.084 31.4588 192.313C31.4338 192.93 31.6107 193.616 30.6878 193.727C26.5871 192.402 28.5179 188.323 28.4173 185.009C28.136 183.407 25.9987 183.047 24.7099 182.512C19.5046 181.244 16.0895 177.296 12.1601 173.977C9.3402 173.125 13.2176 183.907 8.06252 177.537C9.59631 164.467 -0.535785 155.355 7.35458 142.32C6.74315 148.414 7.12327 172.357 12.5399 157.147C13.8301 153.005 19.0907 149.267 19.345 145.83C20.5537 135.127 10.6366 136.151 12.4921 130.88C24.1166 143.726 13.9993 118.499 23.6479 114.493C22.6608 120.106 16.8982 137.501 24.2462 139.252C26.1657 140.481 27.6878 139.992 29.4399 138.515C31.9103 136.442 38.7677 135.247 36.6398 130.936C34.5821 127.753 20.8846 112.506 27.204 111.033C29.3245 116.214 32.212 121.489 36.0355 125.533C37.9658 121.521 33.9858 109.354 39.6418 109.854C37.6506 117.093 38.7284 125.348 39.3857 131.815C39.3923 132.669 39.7593 132.91 40.3873 132.19C44.555 129.092 42.8328 130.633 46.4264 130.829C47.8923 129.805 51.9489 130.612 51.6808 128.24C50.9863 126.93 48.6536 129.043 47.5578 129.383C46.2562 130.398 41.5862 129.382 44.2483 128.017C46.4349 126.327 50.6238 126.345 51.3785 123.396C52.0093 118.68 53.6536 114.417 57.432 111.25C58.1976 110.608 58.3651 109.909 57.8206 109.041C56.2075 107.401 60.4775 106.71 59.1356 108.937C59.1234 109.05 59.5927 109.364 59.6698 109.315C65.2587 105.089 72.7555 107.56 79.4462 107.204C80.2826 109.99 67.5682 105.073 62.3096 109.882C59.7147 111.522 61.6495 115.331 60.998 117.906C61.2352 119.608 59.092 122.096 60.976 123.187C60.712 124.845 63.2046 124.154 61.9155 123.038C66.1585 122.297 70.4259 123.23 74.5368 124.211C76.7666 126.915 69.5948 126.467 70.5068 124.515C68.5921 126.71 60.4929 123.15 57.9992 127.468C57.767 128.24 57.4906 128.678 58.7683 128.554C64.0961 127.805 69.1919 129.634 74.4839 129.756C74.8188 129.983 76.1559 129.577 75.0817 130.724C75.8878 134.329 73.0537 131.256 70.9079 133.719C68.2199 135.912 62.8468 137.157 62.2866 140.879C66.9113 145.127 75.0682 142.438 80.7009 141.506C83.0982 144.022 86.4068 142.813 85.063 147.021C85.1937 150.127 91.1105 145.38 93.6468 148.241C90.8236 150.751 85.3306 149.359 83.7553 152.809C82.8331 156.391 79.8842 159.538 81.4379 163.174C82.7255 164.506 81.7303 166.939 83.0303 167.862C86.0991 166.276 90.4235 166.094 92.7999 163.608C96.9476 159.423 90.9009 159.884 93.6716 158.892C95.1072 158.99 95.7291 158.322 96.0971 156.958C97.152 148.416 102.574 149.583 97.3743 156.41C97.224 157.669 98.1683 158.52 98.5901 159.55C97.2005 158.503 93.4217 164.689 94.7303 164.547C99.2021 161.438 104.721 160.644 109.151 157.328C114.489 158.115 119.393 159.273 125.25 159.571C122.247 164.918 118.76 170.569 111.761 170.059C103.943 169.529 102.703 176.169 98.5682 177.175C95.9155 174.43 95.8166 172.733 92.898 177.132C92.3461 177.077 90.9289 177.342 91.9498 177.939C91.7301 178.312 91.1117 178.622 91.9074 179.089C107.958 182.141 96.4467 172.802 113.22 171.99C120.887 172.171 123.785 164.949 127.458 159.552C132.603 160.095 138.099 159.519 143.425 159.474C146.298 159.688 157.116 157.165 153.213 160.581C151.932 160.203 151.871 160.262 151.999 161.753C147.167 164.229 141.431 163.374 137.166 167.134C136.677 167.004 136.328 164.967 135.31 165.781C136.11 171.273 127.468 177.231 121.441 178.724C114.564 180.166 108.855 184.606 106.624 191.357C103.581 189.197 103.614 181.876 99.9528 180.886C94.4262 180.666 88.8193 179.568 84.7559 184.222C84.0787 185.102 83.3103 184.805 82.3164 184.856C82.8019 186.193 81.1417 186.526 81.026 187.708C79.4848 191.583 79.9007 194.978 82.5057 198.33C80.6117 198.629 79.6279 199.535 78.5267 197.38C77.042 195.504 77.2979 199.654 76.517 200.009C70.7178 203.321 80.6412 191.724 74.5154 189.862C71.6791 191.257 68.599 191.831 65.544 192.259C48.0634 195.06 49.84 180.625 44.8639 201.929Z"
    fill="#22B5F5"
  />
<path
    fill-rule="evenodd"
    clip-rule="evenodd"
    d="M113.174 121.593C112.254 122.435 112.768 122.528 113.416 123.096C114.143 122.464 113.75 122.217 113.174 121.593ZM111.287 98.8077C111.329 95.1632 108.893 102.682 107.295 100.822C107.215 100.757 106.658 101.098 106.668 101.127C107.199 103.925 108.322 102.54 110.332 102.014C112.388 101.911 111.292 100.154 111.287 98.8077ZM113.291 117.298C111.512 110.738 115.334 102.342 105.635 108.465C96.7203 114.004 93.1146 126.6 87.7809 135.429C92.636 133.811 99.7527 126.305 106.004 123.653C108.499 121.393 114.162 121.589 113.291 117.298ZM125.25 159.571C121.165 158.903 106.447 159.189 118.098 155.507C122.171 153.992 121.873 155.141 120.682 150.359C117.652 142.604 116.773 134.188 114.383 126.202C113.311 122.504 100.949 132.732 98.3562 134.139C92.5176 137.426 85.1234 150.494 80.4541 140.074C82.9651 134.233 85.5607 128.401 88.9256 122.994C89.6696 120.478 95.3436 114.652 93.4045 113.65C89.8776 114.987 69.0771 121.036 78.7814 114.025C85.7649 111.799 93.9807 110.172 99.7049 105.585C103.115 99.7067 108.876 94.6157 111.209 88.4279C111.245 83.1035 111.375 77.7778 112.443 72.5602C119.667 69.2895 115.457 78.0523 116.188 82.1898C115.743 84.6612 127.726 71.1549 126.136 71.0029C126.433 70.6094 126.733 70.236 127.248 70.1369C127.744 72.0631 130.499 71.2482 131.989 72.0997C126.468 79.718 115 85.973 116.594 96.4592C116.658 98.1842 116.83 98.3289 118.288 97.4858C126.899 92.7225 134.788 86.856 142.745 81.1015C144.518 79.0278 139.273 76.3398 138.387 74.182C143.964 75.3479 147.104 80.7782 148.116 86.0131C146.834 83.5052 144.577 84.6412 143.08 86.2555C135.706 92.2208 127.696 97.5539 119.219 101.93C115.21 104.385 119.595 110.506 119.04 114.362C118.555 116.568 123.187 120.047 122.285 116.468C121.179 115.101 125.853 114.04 126.698 113.933C128.815 113.817 129.704 112.146 131.642 111.834C137.451 111.339 153.801 101.617 152.959 111.844C142.072 111.917 131.87 116.451 121.928 120.431C118.986 121.229 121.357 123.918 121.18 125.977C120.741 127.226 120.568 127.644 121.997 128.191C123.357 135.113 125.201 142.291 127.671 149.027C127.354 153.248 135.322 145.276 137.363 144.799C144.521 138.551 151.728 132.587 155.995 123.892C157.166 127.202 158.372 131.894 154.846 134.582C148.488 142.49 140.645 149.43 131.748 154.403C127.178 158.046 135.794 160.903 125.25 159.571Z"
    fill="#CCCCCC"
  />
<path
    fill-rule="evenodd"
    clip-rule="evenodd"
    d="M148.807 170.692C150.013 169.997 150.296 169.379 149.121 168.76C148.232 169.009 147.868 169.788 148.807 170.692ZM160.121 168.367C158.959 167.792 158.511 166.932 157.562 167.927C158.543 168.909 158.648 169.737 160.121 168.367ZM201.995 132.503C203.687 137.079 204.706 146.64 200.291 149.665C195.881 154.985 187.901 150.647 183.698 156.368C179.555 163.829 169.624 159.915 165.148 167.349C160.007 174.589 149.089 170.932 144.068 178.785C135.575 194.62 119.283 187.069 115.162 203.863C103.147 197.273 108.084 184.982 119.618 181.45C127.014 180.414 132.257 175.72 137.037 170.329C141.32 164.473 149.317 167.716 154.021 162.842C157.236 159.798 159.453 155.314 164.052 154.153C178.678 154.35 174.422 144.591 185.024 142.657C193.048 143.04 194.251 132.685 201.995 132.503Z"
    fill="#22B5F5"
  />
<path
    fill-rule="evenodd"
    clip-rule="evenodd"
    d="M52.9884 54.1308C53.6194 55.1088 52.1779 57.9176 53.9072 58.2695C59.9367 59.1572 66.0355 57.9214 72.1744 58.2233C75.7524 57.4039 84.2246 59.4318 86.0211 56.7938C86.0517 50.8035 85.7177 43.6304 80.3317 40.0184C69.6741 30.1372 50.6964 39.6507 52.9884 54.1308ZM39.6425 109.855C36.6299 109.172 40.7555 96.8435 36.5612 99.1546C34.624 100.906 33.6969 104.874 31.1953 105.444C28.2534 104.882 26.7295 102.155 24.9861 100.006C22.1586 98.6297 21.092 108.677 17.4403 105.402C15.2976 104.132 12.1883 97.2371 10.3858 101.217C10.0638 102.776 7.49726 107.077 7.418 103.435C13.7331 84.1439 15.4202 111.979 22.3928 96.7677C25.7235 91.7738 28.312 102.818 31.3542 100.974C33.306 98.7235 34.4343 95.1836 37.6915 94.6007C40.358 93.1248 35.6256 84.3504 33.7631 85.6345C30.5434 93.2486 28.6874 92.1455 24.7694 85.7382C23.8515 84.4505 23.8035 84.4366 22.8998 85.6566C14.3885 100.916 15.9227 76.5348 10.0255 88.9512C5.51434 92.0617 10.9354 83.2176 11.6482 81.9129C13.969 78.8622 16.1646 84.5633 17.5028 86.164C22.1989 89.2772 21.4802 73.3286 28.666 86.1248C31.2582 88.9244 32.1065 77.6545 35.4839 82.4088C39.8387 88.6365 37.615 78.3313 38.0438 75.2111C37.622 73.769 39.1225 70.4791 37.1748 70.2274C26.3071 69.2914 13.0776 72.1401 3.31879 68.6408C8.12019 65.5635 16.1213 69.2512 21.1901 67.1171C21.7481 64.5049 20.0368 42.6166 23.4635 46.4329C24.9408 53.024 22.4937 62.0084 24.744 67.5044C39.7003 66.2823 35.4218 71.3784 41.8411 60.6676C42.804 59.2465 43.4631 60.2395 44.7045 60.0132C51.1638 55.6547 50.563 62.3595 50.1592 50.7053C51.2866 34.7672 72.3407 27.9685 83.1299 39.356C87.5574 43.9194 88.8712 50.379 88.8674 56.5411C88.8594 57.4997 88.9021 57.9464 90.1281 58.2425C100.595 59.3829 98.1106 67.6656 101.748 73.5256C100.386 73.0914 99.0339 73.7661 97.6834 73.9764C99.0883 60.1182 86.0504 58.8524 91.1529 61.7993C92.4341 63.2724 90.4997 62.6344 89.6288 62.7089C89.488 63.5461 90.8135 64.1574 89.4169 64.7611C90.0486 67.7391 87.5644 67.5581 87.5616 64.6613C87.5571 63.7869 88.0405 62.7882 86.9057 62.2215C87.3036 61.1007 86.3195 62.8712 85.4776 60.6902C83.5553 60.9259 83.5657 61.921 83.9891 63.4537C83.4456 63.5546 82.5062 63.8748 82.421 63.7212C75.2771 58.8993 80.0569 66.9916 75.5448 64.7368C75.2717 59.1304 76.2704 63.5997 77.519 61.2481C73.4773 59.7194 66.9509 61.3781 62.1151 61.1376C42.3285 60.1211 39.4951 60.3495 40.1376 81.2609C40.8912 85.5227 38.7544 91.2643 41.8411 94.6045C43.09 95.3531 41.8179 96.4458 42.2548 97.2945C41.473 98.0968 40.5767 95.5919 40.4378 97.0004C41.8693 99.6198 38.8403 102.347 42.2266 104.363C42.7311 105.521 46.9147 105.121 44.884 106.668C43.2577 106.386 43.4775 107.397 42.547 107.313C39.9545 106.387 41.4041 109.117 39.6425 109.855Z"
    fill="#093DB9"
  />
<path
    fill-rule="evenodd"
    clip-rule="evenodd"
    d="M137.62 203.95C126.826 207.043 105.724 208.411 124.577 194.735C130.019 192.561 136.466 192.051 140.142 186.91C150.523 170.524 155.25 179.16 164.934 170.601C167.979 167.152 171.38 163.665 176.333 163.961C183.929 164.227 185.306 153.153 193.81 155.377C196.53 155.723 198.768 153.806 200.798 152.25C199.531 155.882 199.595 163.607 195.349 164.061C189.488 163.626 187.295 169.551 182.472 171.196C175.873 171.971 174.573 180.392 167.837 180.632C158.646 180.035 156.337 190.328 148.442 192.241C142.803 193.706 138.195 197.956 137.62 203.95Z"
    fill="#22B5F5"
  />
<path
    fill-rule="evenodd"
    clip-rule="evenodd"
    d="M146.403 80.3105C145.065 78.6271 144.006 78.0675 146.36 77.0567C149.336 73.8843 153.447 70.469 154.1 66.0752C161.037 56.3117 157.742 37.0222 158.933 23.8333C155.614 19.4466 147.294 18.8267 142.396 15.5709C137.702 14.4007 132.954 9.79595 128.111 11.1484C119.147 14.7967 110.091 18.2136 100.98 21.4757C99.9007 20.5902 100.088 44.2244 102.108 42.5032C102.836 42.7097 102.952 43.1566 102.27 43.6419C98.7849 47.4018 102.301 51.448 106.551 52.1525C106.911 52.8277 106.631 54.1658 108.12 53.6698C108.736 54.4057 108.096 54.4852 107.436 54.7176C106.878 54.9108 106.01 56.395 105.942 54.3667C105.514 53.8216 104.894 54.2708 104.762 54.8939C106.054 55.5734 104.45 56.1502 104.538 56.8617C99.705 45.4291 101.721 60.8087 104.08 64.698C105.076 65.7461 104.361 63.7837 105.305 64.4485C105.487 64.5873 105.462 65.4241 105.259 65.5749C104.13 66.4163 105.907 66.9685 105.41 67.6954C107.643 67.118 105.523 70.4327 108.418 72.6953C103.713 76.978 98.3457 54.9737 98.6065 51.5094C99.3723 44.5493 94.9792 22.9981 100.272 19.7032C134.208 6.25227 125.636 5.60472 159.255 20.5427C161.785 22.8094 160.201 27.4877 160.752 30.6329C160.351 41.8693 161.372 53.5425 157.89 64.3387C159.51 66.3793 169.685 64.2456 173.288 64.8293C176.153 64.0765 181.629 66.121 183.024 63.3728C183.673 58.088 182.717 51.9525 185.107 47.1703C187.401 51.5159 185.381 57.6277 185.808 62.5651C185.284 66.6856 194.179 63.6532 197.471 64.5623C199.441 64.047 206.653 64.4631 202.011 66.9866C196.066 67.0288 190.102 67.2091 184.161 67.2652C181.079 68.1908 167.116 65.2107 167.783 69.0675C168.512 71.1848 166.679 75.7395 168.925 76.5488C171.249 76.5184 170.297 74.605 170.49 73.1827C171.815 72.1705 170.477 75.4063 170.248 76.0459C169.838 77.6491 172.859 77.3482 173.854 78.1129C175.272 78.4584 175.986 81.7192 174.298 81.9855C173.736 80.8714 173.595 81.6766 173.333 82.1692C172.427 84.6672 171.828 79.8709 170.236 81.2765C170.846 77.0118 167.172 80.2911 168.799 82.5445C168.721 82.7993 168.703 83.2377 168.559 83.2839C166.81 83.8486 168.372 85.1306 167.973 86.316C168.412 89.7366 169.53 85.5547 170.019 85.9983C170.395 86.1591 170.9 86.449 170.414 87.1473C169.716 88.1512 169.786 88.2546 170.941 88.2244C175.12 88.9399 190.78 85.7806 192.035 88.7682C192.449 91.3049 188.743 89.0234 187.695 90.7918C185.089 89.2113 182.37 91.3593 179.6 90.3336C176.995 89.9622 179.688 96.455 178.635 98.4228C178.544 100.507 180.506 105.475 178.1 106.524C177.101 106.544 176.998 105.631 176.96 104.901C176.705 83.4976 177.292 91.9553 155.505 90.9106C153.429 91.2116 145.397 91.2846 150.098 89.0333C154.713 88.2553 161.259 89.7413 164.977 87.8403C164.175 84.4481 167.698 66.7452 164.507 67.2593C162.005 67.7087 158.153 66.0026 156.373 67.8683C153.635 72.4827 150.066 76.4275 146.403 80.3105Z"
    fill="#093DB9"
  />
<path
    fill-rule="evenodd"
    clip-rule="evenodd"
    d="M155.996 123.893C151.726 132.587 144.522 138.552 137.362 144.797C135.28 145.303 127.395 153.217 127.671 149.027C125.202 142.291 123.356 135.113 121.997 128.191C120.603 127.643 120.706 127.227 121.181 125.976C121.358 123.919 118.985 121.229 121.928 120.432C131.869 116.45 142.072 111.917 152.959 111.845C153.865 113.374 154.758 115.383 153.907 117.061C155.168 119.067 155.924 121.547 155.996 123.893Z"
    fill="#1A8CE7"
  />
<path
    fill-rule="evenodd"
    clip-rule="evenodd"
    d="M105.771 73.0733C116.356 72.0061 111.028 70.7541 111.302 83.6758C112.329 92.5978 103.691 98.2769 99.7052 105.585C93.9769 110.173 85.7703 111.798 78.7827 114.027C76.1572 113.353 80.9791 103.847 81.4698 101.143C84.8438 92.9423 88.6482 84.5559 91.2027 76.2644C95.2809 73.8244 100.854 72.9258 105.771 73.0733Z"
    fill="#1A8CE7"
  />
<path
    fill-rule="evenodd"
    clip-rule="evenodd"
    d="M197.069 165.986C195.4 174.284 192.941 184.761 183.176 186.303C180.44 186.66 177.813 187.505 175.857 189.653C173.223 192.708 171.267 196.45 166.664 196.396C163.647 196.591 161.303 197.957 160.536 201.183C153.868 202.467 146.673 202.966 139.779 203.226C140.949 198.67 144.383 195.429 148.935 194.628C156.913 193.373 158.563 182.856 167.186 183.203C174.963 183.795 176.255 174.354 183.322 173.353C188.415 171.578 190.753 165.592 197.069 165.986Z"
    fill="#22B5F5"
  />
<path
    fill-rule="evenodd"
    clip-rule="evenodd"
    d="M148.707 89.3881C147.855 97.7943 158.271 108.783 144.468 108.163C136.871 109.991 129.93 112.501 122.736 115.323C120.923 115.611 123.611 117.428 121.955 118.039C118.968 119.386 115.836 101.604 119.218 101.929C127.695 97.5531 135.706 92.2224 143.08 86.2556C146.077 82.6324 148.772 85.5502 148.707 89.3881Z"
    fill="#1A8CE7"
  />
<path
    fill-rule="evenodd"
    clip-rule="evenodd"
    d="M188.89 123.199C193.421 123.519 206.273 130.235 196.697 131.714C192.227 133.733 191.194 140.077 185.563 140.088C177.246 139.624 176.327 150.086 169.149 150.928C164.315 149.641 155.123 158.995 158.939 150.418C160.862 144.857 154.393 141.753 163.782 141.475C174.783 139.299 176.909 124.926 188.89 123.199Z"
    fill="#22B5F5"
  />
<path
    fill-rule="evenodd"
    clip-rule="evenodd"
    d="M44.864 201.929C49.8365 180.627 48.0701 195.059 65.5446 192.258C71.5994 191.981 78.7769 185.702 75.8672 196.894C73.2187 205.24 52.1414 204.929 44.864 201.929Z"
    fill="#1C64D0"
  />
<path
    fill-rule="evenodd"
    clip-rule="evenodd"
    d="M156.707 132.397C157.803 130.683 157.159 128.962 156.726 127.243C158.899 125.448 160.671 122.803 163.645 122.435C169.299 122.351 170.395 114.786 175.816 117.805C192.43 122.799 181.156 121.42 175.213 129.233C171.428 135.559 166.272 139.926 158.622 140.106C157.793 137.669 158.788 134.116 156.707 132.397Z"
    fill="#22B5F5"
  />
<path
    fill-rule="evenodd"
    clip-rule="evenodd"
    d="M82.5046 198.33C78.5468 193.501 80.3342 189.667 82.3177 184.856C83.3236 184.783 84.0605 185.132 84.7553 184.221C88.8213 179.568 94.425 180.667 99.953 180.887C102.725 181.55 104.162 187.66 105.386 190.329C98.1112 193.894 90.3718 196.438 82.5046 198.33Z"
    fill="#1C64D0"
  />
<path
    fill-rule="evenodd"
    clip-rule="evenodd"
    d="M158.178 154.987C162.851 149.441 171.979 153.488 175.315 146.739C177.61 142.792 181.041 140.567 185.564 140.088C192.382 139.584 193.472 130.512 200.798 130.611C203.99 133.538 195.085 133.114 193.998 137.393C190.231 144.608 179.935 140.648 176.697 148.536C174.315 153.765 168.819 153.213 164.052 154.153C157.029 155.921 155.066 166.098 147.162 165.841C136.453 165.637 133.085 178.841 123.051 180.527C110.325 180.996 107.714 197.692 106.625 191.357C111.358 176.754 128.093 180.873 136.024 168.204C140.493 163.471 148.234 163.42 153.56 161.799C152.881 159.199 156.725 157.139 158.178 154.987Z"
    fill="#1C64D0"
  />
<path
    fill-rule="evenodd"
    clip-rule="evenodd"
    d="M25.0815 112.87C27.8888 118.37 30.5977 123.997 34.7977 128.606C36.6182 130.3 38.4685 133.346 35.5405 134.94C31.8932 136.298 28.1376 141.532 24.2476 139.253C20.499 137.322 20.8689 138.239 20.834 134.005C21.304 127.893 20.8466 118.74 24.542 114.41C24.1597 113.711 24.4837 113.241 25.0815 112.87Z"
    fill="#1C64D0"
  />
<path
    fill-rule="evenodd"
    clip-rule="evenodd"
    d="M200.798 152.25C195.629 157.707 186.776 152.88 183.074 160.616C179.583 166.138 171.66 162.136 167.849 167.607C161.756 177.311 150.465 172.478 144.353 181.652C137.063 196.134 121.415 189.777 117.344 203.263C115.541 206.569 114.946 201.791 116.513 199.977C118.936 193.957 125.035 191.553 130.915 190.163C141.633 187.44 144.107 172.269 156.321 172.372C160.127 172.114 162.864 170.135 165.148 167.348C169.623 159.915 179.555 163.828 183.698 156.369C187.9 150.648 195.883 154.985 200.289 149.665C203.056 147.362 201.267 150.464 200.798 152.25Z"
    fill="#1C64D0"
  />
<path
    fill-rule="evenodd"
    clip-rule="evenodd"
    d="M11.7934 132.472C16.7921 137.591 20.6631 139.084 18.9104 147.532C15.1181 152.63 11.9512 157.253 9.53815 163.586C5.5031 153.371 6.22722 141.892 11.7934 132.472Z"
    fill="#1C64D0"
  />
<path
    fill-rule="evenodd"
    clip-rule="evenodd"
    d="M191.898 183.598C188.179 202.676 178.615 201.168 162.324 201.108C165.145 196.278 172.493 200.455 175.5 193.24C179.275 187.087 187.932 189.841 191.898 183.598Z"
    fill="#22B5F5"
  />
<path
    fill-rule="evenodd"
    clip-rule="evenodd"
    d="M197.069 165.986C190.737 165.599 188.425 171.575 183.323 173.355C176.258 174.353 174.96 183.795 167.186 183.202C158.562 182.856 156.916 193.373 148.935 194.628C141.539 195.267 142.175 202.115 137.621 203.951C138.196 197.956 142.801 193.708 148.441 192.24C156.331 190.33 158.651 180.033 167.838 180.632C174.572 180.392 175.875 171.97 182.472 171.195C184.399 170.832 185.757 169.488 187.015 168.081C188.663 165.314 198.737 161.272 197.069 165.986Z"
    fill="#1C64D0"
  />
<mask
    id="mask0_1247_29099"
    style="mask-type:alpha"
    maskUnits="userSpaceOnUse"
    x="0"
    y="151"
    width="9"
    height="26"
  >
<path d="M0.179276 151.378H8.24527V176.65H0.179276V151.378Z" fill="#CCCCCC" />
</mask>
<g mask="url(#mask0_1247_29099)">
<path
      fill-rule="evenodd"
      clip-rule="evenodd"
      d="M6.27882 169.369C5.30308 169.843 6.01229 170.236 6.22113 170.907C6.8942 170.576 6.34352 170.002 6.27882 169.369ZM3.97904 151.378C3.58885 158.484 7.7781 164.634 8.24521 171.294C7.54715 174.98 8.73029 179.084 4.50618 174.862C-2.69332 168.31 0.503662 158.96 3.97904 151.378Z"
      fill="#1C64D0"
    />
</g>
<path
    fill-rule="evenodd"
    clip-rule="evenodd"
    d="M11.0604 179.542C10.9693 174.319 10.6145 171.75 15.3355 176.756C18.4576 181.415 25.2769 181.178 28.4182 185.008C28.3503 187.377 27.9743 189.736 28.11 192.116C22.3449 188.044 16.2825 184.317 11.0604 179.542Z"
    fill="#1C64D0"
  />
<path
    fill-rule="evenodd"
    clip-rule="evenodd"
    d="M30.6878 193.728C33.3008 192.313 29.4841 184.941 33.3143 184.91C35.3439 185.697 39.3385 183.963 40.3396 186.072C39.7206 200.489 45.3145 204.185 30.6878 193.728Z"
    fill="#1C64D0"
  />
<path
    fill-rule="evenodd"
    clip-rule="evenodd"
    d="M37.42 109.783C35.2386 116.121 39.2994 133.312 31.384 119.203C24.8321 109.263 27.2059 110.139 37.42 109.783Z"
    fill="#1C64D0"
  />
<path
    fill-rule="evenodd"
    clip-rule="evenodd"
    d="M191.898 183.598C187.929 189.843 179.278 187.086 175.5 193.24C171.582 199.956 166.876 197.227 160.536 201.184C161.969 194.221 170.862 198.256 173.617 192.394C175.743 188.992 179.171 186.591 183.176 186.303C186.535 187.114 194.484 177.265 191.898 183.598Z"
    fill="#1C64D0"
  />
<path
    fill-rule="evenodd"
    clip-rule="evenodd"
    d="M158.622 140.107C171.494 140.746 173.77 125.946 184.619 122.435C195.356 122.179 177.627 125.977 174.852 133.085C172.165 137.166 168.874 140.853 163.78 141.474C161.553 141.504 157.794 143.713 158.622 140.107Z"
    fill="#1C64D0"
  />
<path
    fill-rule="evenodd"
    clip-rule="evenodd"
    d="M155.996 123.893C156.453 120.966 153.624 118.527 154.278 115.891C155.123 119.848 163.063 111.826 170.094 116.182C168.614 118.038 166.789 119.519 164.458 119.954C160.942 119.602 157.955 124.907 155.996 123.893Z"
    fill="#22B5F5"
  />
<path
    fill-rule="evenodd"
    clip-rule="evenodd"
    d="M34.3677 19.8758C34.061 19.7831 32.794 20.4759 32.7311 19.3627C32.8988 17.6804 35.5264 18.8095 36.6802 18.0597C35.8251 17.2532 32.9117 13.9001 35.7645 14.3461C41.1038 19.7279 38.5326 15.3898 43.1669 14.269C43.2898 15.7097 42.1362 16.6887 41.4263 17.8201C42.9203 17.4684 45.9778 18.6662 43.3788 19.6298C41.2357 19.8684 43.7091 21.2272 44.0851 21.925C44.7997 27.2786 39.6263 18.4315 38.5745 21.4294C37.5531 22.2823 36.6912 25.0178 35.0891 24.1333C33.7086 21.9687 39.5118 19.7405 34.3677 19.8758Z"
    fill="#093DB9"
  />
<path
    fill-rule="evenodd"
    clip-rule="evenodd"
    d="M57.4165 18.0251C60.1006 17.383 62.0246 19.4367 58.5382 19.9836C58.978 21.2444 61.5015 22.0832 60.4496 23.4924C59.746 24.2347 59.0864 23.62 58.519 23.1094C55.9244 20.1263 55.1004 20.4881 52.9983 23.633C52.1135 25.3375 49.8943 23.8107 51.4392 22.471C54.0686 19.8736 52.4334 19.8886 49.7117 19.9976C47.1951 18.5514 51.7409 18.482 52.8206 18.1675C52.0745 16.8819 50.4047 16.1404 50.8445 14.4319C53.1435 13.6909 54.4996 18.7327 56.2769 16.562C59.2923 12.2104 60.5817 14.6783 57.4165 18.0251Z"
    fill="#093DB9"
  />
<path
    fill-rule="evenodd"
    clip-rule="evenodd"
    d="M68.1557 20.0387C66.5545 20.4226 64.8249 19.2741 67.2521 18.5241C70.3349 18.3047 69.4952 17.7577 67.9242 15.7373C67.6374 13.0347 70.1176 15.0753 71.0837 16.1044C72.8482 18.3825 73.6068 15.91 75.0407 14.6089C77.8705 12.8789 75.6306 17.0512 74.6525 17.8915C75.8444 17.9215 77.0118 17.8239 77.8836 18.7971C75.7887 20.6044 74.7758 19.461 77.4126 21.9989C79.105 24.9903 74.5515 22.9986 73.8594 21.5194C71.7382 18.8122 70.9329 24.9979 68.4582 24.22C66.5502 22.6677 72.9816 19.5414 68.1557 20.0387Z"
    fill="#093DB9"
  />
<path
    fill-rule="evenodd"
    clip-rule="evenodd"
    d="M19.422 118.797C18.8166 124.297 18.8654 129.891 18.021 135.349C8.85457 131.652 15.4924 124.419 19.422 118.797Z"
    fill="#1C64D0"
  />
<path
    fill-rule="evenodd"
    clip-rule="evenodd"
    d="M179.482 29.4933C177.396 28.7331 163.356 28.3355 167.256 24.9441C171.732 26.2679 176.311 25.4299 180.793 26.3249C183.434 27.5923 181.028 29.3693 179.482 29.4933Z"
    fill="#093DB9"
  />
<path
    fill-rule="evenodd"
    clip-rule="evenodd"
    d="M168.428 1.05907C165.527 4.61622 163.391 11.0091 159.581 12.7927C157.084 12.0515 167.151 -4.24341 168.428 1.05907Z"
    fill="#093DB9"
  />
<path
    fill-rule="evenodd"
    clip-rule="evenodd"
    d="M165.821 19.6323C161.176 19.1566 176.41 7.84999 177.334 9.97706C176.794 13.9142 168.878 16.8644 165.821 19.6323Z"
    fill="#093DB9"
  />
<path
    fill-rule="evenodd"
    clip-rule="evenodd"
    d="M156.625 124.662C158.703 122.207 161.208 120.56 164.458 119.954C167.613 120.073 168.983 115.321 171.762 116.733C169.396 122.238 163.133 121.29 159.308 124.833C157.706 126.586 155.88 128.296 156.625 124.662Z"
    fill="#1C64D0"
  />
<path
    fill-rule="evenodd"
    clip-rule="evenodd"
    d="M183.129 90.7868C183.538 91.921 184.141 92.4793 185.542 92.3951C185.002 91.8198 185.208 91.2332 185.434 90.5733C186.216 90.5555 187.272 93.1814 187.122 93.9737C186.234 94.6455 186.721 96.0373 185.688 95.857C185.2 95.8245 184.247 96.2435 184.367 95.4232C184.405 93.4153 181.734 93.6471 181.305 95.2167C177.795 90.3887 182.933 96.0698 183.129 90.7868Z"
    fill="#093DB9"
  />
<path
    fill-rule="evenodd"
    clip-rule="evenodd"
    d="M17.6704 66.9266C16.6839 66.1705 16.3978 65.9171 15.5275 66.6971C16.217 67.6628 16.5363 67.51 17.6704 66.9266ZM20.7835 67.6177C18.7411 67.6367 16.6988 67.656 14.6586 67.6756C17.4533 66.8779 14.7553 66.5228 14.1753 65.4534C15.0861 66.6287 16.5027 65.5934 17.6569 65.3898C18.8505 64.647 16.373 67.8459 20.7835 67.6177Z"
    fill="#1C64D0"
  />
<path
    fill-rule="evenodd"
    clip-rule="evenodd"
    d="M76.7322 199.87C78.5762 192.807 78.0447 200.013 80.6891 198.667C79.9412 199.271 78.0521 199.847 76.7322 199.87Z"
    fill="#1C64D0"
  />
<path
    fill-rule="evenodd"
    clip-rule="evenodd"
    d="M14.2429 67.5436C12.7966 67.5456 11.3504 67.5473 9.90752 67.5493C11.8349 67.4767 11.4483 65.503 9.5806 66.2005C7.42352 66.0252 10.7734 64.0296 11.4485 65.6933C11.841 66.9943 12.9393 67.4853 14.2429 67.5436Z"
    fill="#CCCCCC"
  />
<path
    fill-rule="evenodd"
    clip-rule="evenodd"
    d="M179.692 93.1815C180.43 93.9304 181.378 94.7566 181.353 95.8833C180.956 95.6477 180.397 96.7503 180.064 95.6835C179.763 94.7216 179.288 94.3957 178.793 95.6038C178.765 94.7372 178.738 93.8767 178.71 93.0168C178.919 93.7735 179.321 93.3867 179.692 93.1815Z"
    fill="#CCCCCC"
  />
<path
    fill-rule="evenodd"
    clip-rule="evenodd"
    d="M174.811 67.3293C177.931 67.3081 181.05 67.2868 184.161 67.2655C181.597 67.7984 177.472 66.232 175.773 68.0379C175.492 69.0392 173.864 68.2092 174.811 67.3293Z"
    fill="#CCCCCC"
  />
<path
    fill-rule="evenodd"
    clip-rule="evenodd"
    d="M179.692 93.1815C178.711 94.0564 178.623 92.5893 178.529 91.8393C180.373 92.831 180.913 89.8885 183.045 90.6378C183.408 90.6907 182.7 91.2043 182.601 91.4132C180.692 90.503 181.354 92.9948 179.692 93.1815Z"
    fill="#1C64D0"
  />
<path
    fill-rule="evenodd"
    clip-rule="evenodd"
    d="M168.058 85.2045C166.976 83.8206 168.492 83.7755 168.8 82.5444C168.866 83.1389 170.214 85.0866 169.172 84.7056C168.616 84.4783 167.859 83.7577 168.058 85.2045Z"
    fill="#1C64D0"
  />
<path
    fill-rule="evenodd"
    clip-rule="evenodd"
    d="M174.525 71.8907C173.918 73.9723 172.729 72.2325 172.692 71.0011C173.397 70.851 173.934 71.6195 174.525 71.8907Z"
    fill="#093DB9"
  />
<path
    fill-rule="evenodd"
    clip-rule="evenodd"
    d="M182.459 96.8752C182.668 95.2603 183.702 96.9508 184.392 97.3917C183.961 99.0842 183.193 97.4746 182.459 96.8752Z"
    fill="#CCCCCC"
  />
<path
    fill-rule="evenodd"
    clip-rule="evenodd"
    d="M21.2409 62.5505C21.1773 65.3165 21.1381 65.7218 19.7778 63.1118C20.4918 63.5144 21.0659 63.5518 21.2409 62.5505Z"
    fill="#1C64D0"
  />
<path
    fill-rule="evenodd"
    clip-rule="evenodd"
    d="M19.7932 63.0974C18.7064 62.6154 19.2243 61.6792 18.9882 60.9612C19.2624 61.6503 19.5029 62.4756 19.7932 63.0974Z"
    fill="#1C64D0"
  />
<path
    fill-rule="evenodd"
    clip-rule="evenodd"
    d="M75.2384 200.507C75.6653 200.341 76.0919 200.175 76.5172 200.009C76.0898 200.176 75.6642 200.341 75.2384 200.507Z"
    fill="#1C64D0"
  />
<path
    fill-rule="evenodd"
    clip-rule="evenodd"
    d="M178.748 98.4348C178.636 98.4416 178.628 98.3992 178.658 98.3045C178.758 98.3113 178.781 98.3385 178.748 98.4348Z"
    fill="#CCCCCC"
  />
<path
    fill-rule="evenodd"
    clip-rule="evenodd"
    d="M21.4358 59.5171C21.4358 59.5171 21.4167 59.5128 21.4173 59.5123C21.4178 59.5117 21.4358 59.5171 21.4358 59.5171Z"
    fill="#1C64D0"
  />
<path
    fill-rule="evenodd"
    clip-rule="evenodd"
    d="M7.72929 177.172C7.84072 177.294 7.95215 177.416 8.06304 177.538C7.95143 177.415 7.84036 177.294 7.72929 177.172Z"
    fill="#1C64D0"
  />
<path
    fill-rule="evenodd"
    clip-rule="evenodd"
    d="M21.1812 67.0815C21.2143 67.1481 21.1428 67.0962 21.1156 67.1L21.1812 67.0815Z"
    fill="#1C64D0"
  />
<path
    fill-rule="evenodd"
    clip-rule="evenodd"
    d="M24.5493 114.41C24.5493 114.41 24.5415 114.41 24.5419 114.41C24.5424 114.41 24.5493 114.41 24.5493 114.41Z"
    fill="#22B5F5"
  />
<path
    fill-rule="evenodd"
    clip-rule="evenodd"
    d="M113.666 156.986C108.993 159.629 104.339 152.588 99.6512 151.286C95.6551 148.014 90.8519 147.523 86.8721 144.435C89.9204 140.752 111.586 122.02 114.383 126.201C116.773 134.189 117.652 142.603 120.681 150.359C123.737 156.498 116.707 155.13 113.666 156.986Z"
    fill="#1A8CE7"
  />
<path
    fill-rule="evenodd"
    clip-rule="evenodd"
    d="M158.622 140.107C159.053 147.063 155.469 153.405 151.123 158.785C145.03 158.388 134.277 162.483 130.511 157.784C129.303 153.157 137.303 152.332 139.747 149.343C142.541 147.208 144.923 144.536 147.7 142.376C153.601 138.265 157.923 125.456 158.622 140.107Z"
    fill="#1A8CE7"
  />
<path
    fill-rule="evenodd"
    clip-rule="evenodd"
    d="M65.4625 152.338C70.0714 151.617 83.0067 158.498 75.8226 163.37C70.8206 164.654 66.2234 169.497 61.4395 169.758C46.006 159.94 46.2245 154.378 65.4625 152.338Z"
    fill="#1C64D0"
  />
<path
    fill-rule="evenodd"
    clip-rule="evenodd"
    d="M20.0772 150.329C22.1056 155.721 23.1649 161.337 26.0932 166.358C28.2957 171.346 33.4336 175.173 29.5466 180.692C24.1476 180.859 17.3662 175.456 13.7141 171.029C8.88094 165.416 16.5619 155.349 20.0772 150.329Z"
    fill="#1C64D0"
  />
<path
    fill-rule="evenodd"
    clip-rule="evenodd"
    d="M40.4817 109.245C43.8059 109.803 60.9989 104.484 57.433 111.249C52.0548 114.545 53.254 121.586 49.8073 125.399C46.2351 126.367 43.0516 129.67 40.0255 130.542C37.309 124.561 37.7398 114.925 40.4817 109.245Z"
    fill="#1C64D0"
  />
<path
    fill-rule="evenodd"
    clip-rule="evenodd"
    d="M29.4667 157.874C30.2162 152.314 31.3569 138.968 39.1443 143.383C40.6466 148.081 42.7084 152.54 45.1773 156.804C46.1322 159.437 41.554 160.753 40.3632 162.843C38.3533 164.942 36.2259 166.953 35.0118 169.709C31.2792 172.835 29.8215 160.271 29.4667 157.874Z"
    fill="#1C64D0"
  />
<path
    fill-rule="evenodd"
    clip-rule="evenodd"
    d="M76.1256 117.84C88.517 117.499 100.573 105.987 88.9248 122.993C85.5609 128.401 82.9649 134.233 80.4548 140.074C76.9345 138.473 75.0023 134.238 75.0817 130.724C76.1559 129.577 74.8188 129.983 74.4843 129.757C75.4913 125.791 73.707 121.785 76.1256 117.84Z"
    fill="#1A8CE7"
  />
<path
    fill-rule="evenodd"
    clip-rule="evenodd"
    d="M64.2678 110.7C65.0297 111.807 68.319 111.209 69.8345 110.818C67.9923 109.947 66.1722 110.268 64.2678 110.7ZM76.1257 117.84C74.2862 128.921 69.3584 120.595 60.976 123.188C59.1445 121.757 62.0696 115.421 60.9912 112.454C62.9519 106.018 73.3084 107.112 78.6807 108.509C78.6361 112.045 77.0426 114.625 76.1257 117.84Z"
    fill="#1C64D0"
  />
<path
    fill-rule="evenodd"
    clip-rule="evenodd"
    d="M58.4344 173.291C54.7681 174.81 53.1019 182.08 48.4286 181.533C46.4029 180.805 42.9428 180.304 43.7944 177.347C45.0559 172.293 45.9076 167.074 48.1529 162.321C49.1006 160.518 51.8537 165.764 53.2787 166.315C54.5864 168.329 62.7221 171.184 58.4344 173.291Z"
    fill="#1C64D0"
  />
<path
    fill-rule="evenodd"
    clip-rule="evenodd"
    d="M93.6474 148.24C99.9509 148.542 97.4175 152.849 96.0963 156.958C95.7292 158.322 95.1071 158.99 93.6724 158.892C84.3947 159.453 77.0297 166.427 83.757 152.811C85.328 149.358 90.8255 150.75 93.6474 148.24Z"
    fill="#1C64D0"
  />
<path
    fill-rule="evenodd"
    clip-rule="evenodd"
    d="M41.1622 141.553C47.3811 138.67 48.4476 139.419 54.1761 142.631C57.5875 144.205 50.5806 149.604 49.877 152.157C48.9852 152.876 48.4356 156.593 47.2417 155.62C44.7203 151.195 42.3872 146.514 41.1622 141.553Z"
    fill="#1C64D0"
  />
<path
    fill-rule="evenodd"
    clip-rule="evenodd"
    d="M74.9111 132.939C75.381 133.781 76.0548 134.572 76.2815 135.475C76.5931 138.649 80.4538 138.795 80.7035 141.505C77.2488 142.802 56.7283 145.426 64.1852 137.983C67.5248 136.468 71.2166 131.597 74.9111 132.939Z"
    fill="#1C64D0"
  />
<path
    fill-rule="evenodd"
    clip-rule="evenodd"
    d="M52.3303 153.788C57.8628 140.237 60.5656 144.431 71.2839 149.687C73.4076 151.941 83.3644 149.676 81.7331 153.171C78.2201 166.146 77.7074 142.322 52.3303 153.788Z"
    fill="#1C64D0"
  />
<path
    fill-rule="evenodd"
    clip-rule="evenodd"
    d="M74.8229 187.356C69.805 192.215 43.6964 190.049 51.4516 185.791C71.5746 188.373 75.0591 177.536 74.8229 187.356Z"
    fill="#1C64D0"
  />
<path
    fill-rule="evenodd"
    clip-rule="evenodd"
    d="M125.25 159.572C129.801 158.733 124.198 163.499 123.52 165.661C120.557 171.62 114.511 171.944 108.609 172.59C102.796 172.713 102.575 179.35 99.3344 179.599C98.2619 179.372 96.8847 178.781 95.898 180.038C94.9187 179.199 93.1886 179.557 91.9072 179.089C91.1117 178.622 91.7301 178.312 91.9487 177.939C94.7729 174.491 95.1963 173.775 98.5732 177.178C113.947 163.074 115.127 177.581 125.25 159.572Z"
    fill="#1C64D0"
  />
<path
    fill-rule="evenodd"
    clip-rule="evenodd"
    d="M61.5868 183.179C60.1683 182.796 53.2585 184.13 54.4927 182.322C59.3978 180.834 63.5148 177.156 68.1298 175.496C83.4317 178.937 68.3733 182.159 61.5868 183.179Z"
    fill="#1C64D0"
  />
<path
    fill-rule="evenodd"
    clip-rule="evenodd"
    d="M80.9738 174.103C81.665 175.98 78.7191 178.859 78.3697 176.081C78.4948 174.659 77.2538 174.898 76.6005 175.347C75.9019 176.313 75.1785 176.089 74.3097 175.755C63.9424 173.527 75.0053 170.713 77.2766 165.356C79.9093 161.071 81.8584 168.288 80.2199 170.211C79.3054 171.602 77.6255 172.594 77.8394 174.452C79.3829 174.922 81.0854 171.951 80.9738 174.103Z"
    fill="#1C64D0"
  />
<path
    fill-rule="evenodd"
    clip-rule="evenodd"
    d="M26.6375 162.674C24.9055 158.094 21.5097 151.646 22.7723 146.972C24.9508 145.611 27.1283 140.995 30.0261 142.759C28.2308 148.982 26.2613 155.902 26.6375 162.674Z"
    fill="#1C64D0"
  />
<path
    fill-rule="evenodd"
    clip-rule="evenodd"
    d="M57.8872 136.392C57.1445 134.624 53.5532 131.103 57.1194 130.355C59.8586 130.616 69.6753 129.487 69.2222 132.123C66.3205 134.139 63.2637 135.941 60.6905 138.377C58.9876 139.148 59.6264 136.442 57.8872 136.392Z"
    fill="#1C64D0"
  />
<path
    fill-rule="evenodd"
    clip-rule="evenodd"
    d="M40.8312 177.997C39.0539 176.196 34.6971 175.021 36.3199 172.169C38.2953 168.06 41.5361 164.839 44.6844 161.639C46.3447 162.148 43.0934 167.509 42.961 169.575C42.058 172.349 42.1855 175.381 40.8312 177.997Z"
    fill="#1C64D0"
  />
<path
    fill-rule="evenodd"
    clip-rule="evenodd"
    d="M91.8852 175.65C90.8227 177.037 89.1266 179.041 87.1633 178.887C86.2057 178.431 82.8304 178.509 83.2621 177.26C86.678 173.71 90.6334 170.771 93.1097 166.362C94.8056 164.399 92.6298 171.506 94.4514 173.06C94.088 174.18 92.3184 174.44 91.8852 175.65Z"
    fill="#1C64D0"
  />
<path
    fill-rule="evenodd"
    clip-rule="evenodd"
    d="M74.5535 126.159C77.1026 133.851 62.9498 126.516 58.7689 128.555C57.4906 128.678 57.7671 128.24 57.9998 127.47C61.2115 123.015 69.6303 126.124 74.5535 126.159Z"
    fill="#1C64D0"
  />
<path
    fill-rule="evenodd"
    clip-rule="evenodd"
    d="M93.3096 159.993C95.9318 159.701 93.4277 162.47 92.7995 163.607C90.4245 166.094 86.0986 166.275 83.0316 167.863C81.7316 166.943 82.7212 164.504 81.4367 163.174C84.2293 161.583 89.677 161.392 93.3096 159.993Z"
    fill="#1C64D0"
  />
<path
    fill-rule="evenodd"
    clip-rule="evenodd"
    d="M83.2359 145.832C83.8574 151.603 75.8876 147.283 72.62 147.509C67.5727 144.806 79.2665 145.887 81.432 143.829C83.3687 142.757 83.2494 144.36 83.2359 145.832Z"
    fill="#1C64D0"
  />
<path
    fill-rule="evenodd"
    clip-rule="evenodd"
    d="M151.124 158.785C154.486 154.664 157.112 150.002 158.574 144.853C160.65 148.163 158.058 151.998 157.824 155.359C155.602 155.174 156.661 160.487 151.124 158.785Z"
    fill="#CCCCCC"
  />
<path
    fill-rule="evenodd"
    clip-rule="evenodd"
    d="M56.5888 123.526C50.14 126.347 55.9033 114.477 58.4617 113.163C59.1829 116.383 58.8524 121.089 56.5888 123.526Z"
    fill="#1C64D0"
  />
<path
    fill-rule="evenodd"
    clip-rule="evenodd"
    d="M107.334 156.218C113.409 158.04 96.2885 162.381 94.7318 164.546C93.3988 164.721 97.2124 158.493 98.5899 159.55C98.5694 159.706 98.5766 159.915 98.4233 160.069C101.507 159.176 104.682 158.266 107.334 156.218Z"
    fill="#1C64D0"
  />
<path
    fill-rule="evenodd"
    clip-rule="evenodd"
    d="M99.6511 151.286C107.103 153.267 101.748 156.326 98.5893 159.55C95.7773 155.616 99.4739 156.126 99.6511 151.286Z"
    fill="#1C64D0"
  />
<path
    fill-rule="evenodd"
    clip-rule="evenodd"
    d="M43.0279 195.942C42.9078 194.095 41.0866 183.68 44.7437 187.302C45.3706 187.768 46.3127 188.112 46.5377 188.722C45.6492 190.65 44.981 195.323 43.0279 195.942Z"
    fill="#1C64D0"
  />
<path
    fill-rule="evenodd"
    clip-rule="evenodd"
    d="M59.2366 174.976C60.6264 173.633 65.1108 171.875 64.8888 174.88C61.3726 176.495 50.8552 183.735 59.2366 174.976Z"
    fill="#1C64D0"
  />
<path
    fill-rule="evenodd"
    clip-rule="evenodd"
    d="M90.4035 167.012C89.2791 168.349 83.5365 175.902 82.729 173.791C82.6258 169.618 86.6795 167.292 90.4035 167.012Z"
    fill="#1C64D0"
  />
<path
    fill-rule="evenodd"
    clip-rule="evenodd"
    d="M67.6082 172.522C60.5476 171.735 71.7613 166.829 74.3205 166.107C72.4869 168.503 69.887 170.582 67.6082 172.522Z"
    fill="#1C64D0"
  />
<path
    fill-rule="evenodd"
    clip-rule="evenodd"
    d="M57.6585 140.031C58.1132 141.819 50.8465 138.524 50.4108 137.324C54.7284 131.3 54.6195 137.955 57.6585 140.031Z"
    fill="#1C64D0"
  />
<path
    fill-rule="evenodd"
    clip-rule="evenodd"
    d="M52.0104 131.035C53.4536 131.955 50.1754 133.809 49.6189 134.828C47.6324 137.454 38.6198 132.991 52.0104 131.035Z"
    fill="#1C64D0"
  />
<path
    fill-rule="evenodd"
    clip-rule="evenodd"
    d="M93.3096 159.993C89.7171 160.117 83.1457 164.556 81.0043 161.382C84.8256 161.024 90.0368 158.219 93.3096 159.993Z"
    fill="#1A8CE7"
  />
<path
    fill-rule="evenodd"
    clip-rule="evenodd"
    d="M77.2344 183.551C77.1443 181.19 78.2786 179.828 80.3347 179.575C80.6309 179.628 81.1706 182.384 80.9272 182.424C80.0137 182.575 80.2622 183.355 80.0399 183.873C79.4409 186.238 77.1722 185.918 77.2344 183.551Z"
    fill="#1C64D0"
  />
<path
    fill-rule="evenodd"
    clip-rule="evenodd"
    d="M39.7555 135.602C41.0611 133.465 43.186 136.389 44.4139 137.285C45.7602 138.633 42.4708 138.879 41.7133 139.446C39.813 140.052 40.359 136.852 39.7555 135.602Z"
    fill="#1C64D0"
  />
<path
    fill-rule="evenodd"
    clip-rule="evenodd"
    d="M38.3912 182.736C36.4568 182.195 31.852 183.536 32.8491 180.538C33.5572 175.829 36.469 181.219 38.3912 182.736Z"
    fill="#1C64D0"
  />
<path
    fill-rule="evenodd"
    clip-rule="evenodd"
    d="M86.8717 144.436C91.6831 146.744 91.3301 147.043 86.3215 148.162C84.0485 148.991 84.954 143.2 86.8717 144.436Z"
    fill="#1C64D0"
  />
<path
    fill-rule="evenodd"
    clip-rule="evenodd"
    d="M20.9133 140.848C20.576 137.922 22.6268 140.424 24.065 140.868C26.2652 141.673 23.0273 143.242 22.3673 144.145C20.7384 145.42 21.2474 141.498 20.9133 140.848Z"
    fill="#1C64D0"
  />
<path
    fill-rule="evenodd"
    clip-rule="evenodd"
    d="M44.9744 129.533C47.1126 131.212 50.091 126.534 51.6805 128.239C52.6526 130.064 42.9053 132.278 44.9744 129.533Z"
    fill="#1C64D0"
  />
<path
    fill-rule="evenodd"
    clip-rule="evenodd"
    d="M86.8833 180.328C85.3668 181.277 81.1259 185.279 82.3606 181.726C82.5957 178.553 84.6205 180.045 86.8833 180.328Z"
    fill="#1C64D0"
  />
<path
    fill-rule="evenodd"
    clip-rule="evenodd"
    d="M44.9744 129.533C44.5297 130.834 43.0703 129.707 42.3809 130.989C42.2269 131.23 41.6978 131.201 41.3937 131.384C36.51 134.847 41.917 127.44 44.9744 129.533Z"
    fill="#CCCCCC"
  />
<path
    fill-rule="evenodd"
    clip-rule="evenodd"
    d="M37.7708 137.388C38.7642 139.629 37.8238 140.994 35.4509 140.901C34.9016 139.665 36.6331 137.886 37.7708 137.388Z"
    fill="#1C64D0"
  />
<path
    fill-rule="evenodd"
    clip-rule="evenodd"
    d="M48.9659 184.928C47.1942 186.847 46.1566 186.639 44.7484 184.994C45.9726 184.276 47.3647 184.988 48.9659 184.928Z"
    fill="#1C64D0"
  />
<path
    fill-rule="evenodd"
    clip-rule="evenodd"
    d="M59.4821 107.484C60.5998 107.39 61.7176 107.296 62.8351 107.203C61.5483 108.038 58.2352 110.924 59.4821 107.484Z"
    fill="#1C64D0"
  />
<path
    fill-rule="evenodd"
    clip-rule="evenodd"
    d="M136.987 167.182C135.724 169.348 134.592 166.967 135.31 165.78C136.141 165.161 136.787 166.482 136.987 167.182Z"
    fill="#CCCCCC"
  />
<path
    fill-rule="evenodd"
    clip-rule="evenodd"
    d="M56.2696 126.105C55.6724 127.238 55.385 127.785 54.5257 128.517C53.339 127.143 54.6858 126.049 56.2696 126.105Z"
    fill="#1C64D0"
  />
<path
    fill-rule="evenodd"
    clip-rule="evenodd"
    d="M43.0279 195.942C44.7031 195.644 42.8837 197.23 44.3136 197.635C44.9037 198.957 43.7196 198.124 43.032 197.849C41.8871 197.813 42.3294 197.543 42.8922 197.166C43.39 196.833 41.7951 196.225 43.0279 195.942Z"
    fill="#1A8CE7"
  />
<path
    fill-rule="evenodd"
    clip-rule="evenodd"
    d="M41.1622 141.553C41.5503 142.585 41.2936 142.774 40.2395 142.797C40.019 141.902 40.1971 141.555 41.1622 141.553Z"
    fill="#CCCCCC"
  />
<path
    fill-rule="evenodd"
    clip-rule="evenodd"
    d="M74.8229 187.356C74.6031 186.844 73.8938 186.27 75.002 185.923C75.7672 186.544 76.1614 187.603 74.8229 187.356Z"
    fill="#CCCCCC"
  />
<path
    fill-rule="evenodd"
    clip-rule="evenodd"
    d="M112.747 163.177C111.931 163.68 111.332 164.378 111.011 163.304C111.391 162.33 111.821 162.56 112.747 163.177Z"
    fill="#1A8CE7"
  />
<path
    fill-rule="evenodd"
    clip-rule="evenodd"
    d="M58.4344 173.291C59.0654 172.983 59.7451 172.422 59.7786 173.389C58.9214 173.697 59.232 174.39 59.2361 174.976C58.1946 174.841 58.4763 173.941 58.4344 173.291Z"
    fill="#CCCCCC"
  />
<path
    fill-rule="evenodd"
    clip-rule="evenodd"
    d="M97.4536 176.41C96.8299 175.763 96.2063 175.115 95.583 174.467C97.0172 174.075 96.9697 175.482 97.4536 176.41Z"
    fill="#1A8CE7"
  />
<path
    fill-rule="evenodd"
    clip-rule="evenodd"
    d="M32.1496 139.644C32.2006 140.487 30.9585 141.636 30.4219 140.714C30.7259 139.937 31.3482 139.546 32.1496 139.644Z"
    fill="#1C64D0"
  />
<path
    fill-rule="evenodd"
    clip-rule="evenodd"
    d="M60.9766 123.187C61.749 122.924 62.1272 123.142 62.4769 123.859C61.4795 124.256 60.998 124.457 60.9766 123.187Z"
    fill="#CCCCCC"
  />
<path
    fill-rule="evenodd"
    clip-rule="evenodd"
    d="M56.5887 123.526C57.43 122.542 58.3686 122.598 58.0961 123.936C57.5001 124.028 56.9903 124.054 56.5887 123.526Z"
    fill="#1A8CE7"
  />
<path
    fill-rule="evenodd"
    clip-rule="evenodd"
    d="M70.4617 125.617C69.5257 125.663 67.9299 124.235 69.631 124.638C70.4916 124.514 70.4865 124.842 70.4617 125.617Z"
    fill="#CCCCCC"
  />
<path
    fill-rule="evenodd"
    clip-rule="evenodd"
    d="M71.8064 124.323C72.1594 124.561 72.4926 124.785 72.8256 125.009C72.3314 125.679 70.8366 124.665 71.8064 124.323Z"
    fill="#CCCCCC"
  />
<path
    fill-rule="evenodd"
    clip-rule="evenodd"
    d="M100.041 177.521C99.342 178.85 99.1437 178.215 98.5733 177.178C99.0625 177.293 99.5519 177.407 100.041 177.521Z"
    fill="#1A8CE7"
  />
<path
    fill-rule="evenodd"
    clip-rule="evenodd"
    d="M92.8987 177.131C92.5816 177.4 92.2646 177.67 91.9486 177.939C90.93 177.34 92.3458 177.078 92.8987 177.131Z"
    fill="#1A8CE7"
  />
<path
    fill-rule="evenodd"
    clip-rule="evenodd"
    d="M98.5672 177.172C98.1976 176.92 97.8281 176.668 97.4588 176.416C97.8283 176.668 98.1978 176.92 98.5672 177.172Z"
    fill="#1A8CE7"
  />
<path
    fill-rule="evenodd"
    clip-rule="evenodd"
    d="M93.3446 174.176C93.5493 174.031 93.754 173.886 93.9575 173.74C94.1825 174.487 93.7835 174.36 93.3446 174.176Z"
    fill="#1A8CE7"
  />
<path
    fill-rule="evenodd"
    clip-rule="evenodd"
    d="M91.4215 176.312C91.7448 175.952 91.8316 176.154 92.0076 176.512C91.8122 176.446 91.6168 176.379 91.4215 176.312Z"
    fill="#1A8CE7"
  />
<path
    fill-rule="evenodd"
    clip-rule="evenodd"
    d="M91.8852 175.65C92.0065 175.445 92.1279 175.24 92.2494 175.036C92.1282 175.241 92.0067 175.445 91.8852 175.65Z"
    fill="#1A8CE7"
  />
<path
    fill-rule="evenodd"
    clip-rule="evenodd"
    d="M94.4196 173.375C94.4185 173.269 94.4287 173.164 94.4507 173.061C94.4402 173.166 94.43 173.27 94.4196 173.375Z"
    fill="#1A8CE7"
  />
<path
    fill-rule="evenodd"
    clip-rule="evenodd"
    d="M32.1615 139.655C32.2068 139.597 32.2521 139.539 32.2973 139.481C32.3356 139.608 32.1787 139.605 32.1615 139.655Z"
    fill="#1C64D0"
  />
<path
    fill-rule="evenodd"
    clip-rule="evenodd"
    d="M37.795 137.411C37.8157 137.355 37.8362 137.299 37.8569 137.244C37.8385 137.301 37.7436 137.366 37.795 137.411Z"
    fill="#1C64D0"
  />
<path
    fill-rule="evenodd"
    clip-rule="evenodd"
    d="M70.4327 124.643C70.4573 124.6 70.4821 124.558 70.5068 124.516C70.4875 124.558 70.4306 124.601 70.4327 124.643Z"
    fill="#CCCCCC"
  />
<path
    fill-rule="evenodd"
    clip-rule="evenodd"
    d="M131.989 72.0992C137.189 71.7919 139.848 75.8902 142.885 79.4222C144.387 81.9279 134.827 85.9044 132.998 88.1323C128.31 91.5794 123.308 94.5561 118.288 97.4858C115.212 99.4737 116.991 92.6499 116.527 91.0334C119.876 83.84 126.95 78.2725 131.989 72.0992Z"
    fill="#1A8CE7"
  />
<path
    fill-rule="evenodd"
    clip-rule="evenodd"
    d="M113.291 117.298C114.166 121.587 108.496 121.394 106.003 123.652C99.7665 126.296 92.6191 133.824 87.7834 135.432C93.1134 126.6 96.7205 114.006 105.632 108.463C115.32 102.351 111.52 110.718 113.291 117.298Z"
    fill="#1A8CE7"
  />
<path
    fill-rule="evenodd"
    clip-rule="evenodd"
    d="M122.533 71.1867C132.508 68.8605 118.545 79.6362 116.846 82.4863C114.88 81.1779 117.166 74.8934 116.845 72.0129C118.687 70.6567 121.089 73.0893 122.533 71.1867Z"
    fill="#1A8CE7"
  />
<path
    fill-rule="evenodd"
    clip-rule="evenodd"
    d="M111.33 66.7876C112.852 67.4278 112.513 64.9174 113.92 66.1025C114.161 65.733 114.426 65.3031 113.951 64.9902C109.221 61.9431 112.205 64.2979 111.33 66.7876ZM118.553 71.4643C112.355 74.7661 116.448 64.6421 111.763 68.1929C110.95 69.8665 110.764 66.4736 108.195 67.4082C109.4 66.9517 108.196 66.0443 108.578 65.3121C109.191 64.0971 108.025 64.1854 107.162 63.9082C107.473 63.0793 108.534 63.9133 109.191 63.776C109.615 63.7849 110.265 63.8748 109.652 62.9938C108.899 62.4961 110.624 60.955 110.095 61.1228C111.032 62.238 111.551 60.9278 112.201 60.3212C114.115 61.8097 112.278 62.2281 113.814 63.758C115.518 64.3743 118.317 62.256 116.084 65.6313C116.085 65.6306 116.037 65.5592 116.037 65.5592C117.325 66.8971 114.765 68.58 116.033 70.0351C116.864 70.8712 116.698 69.1248 117.366 69.5623C118.217 70.7429 119.871 70.4197 118.553 71.4643Z"
    fill="#093DB9"
  />
<path
    fill-rule="evenodd"
    clip-rule="evenodd"
    d="M111.287 98.8076C111.292 100.154 112.388 101.912 110.332 102.014C108.324 102.537 107.195 103.927 106.668 101.126C106.658 101.098 107.214 100.757 107.294 100.822C108.887 102.684 111.334 95.1615 111.287 98.8076Z"
    fill="#1A8CE7"
  />
<path
    fill-rule="evenodd"
    clip-rule="evenodd"
    d="M138.386 74.1824C137.637 73.6679 138.946 72.6975 137.644 72.4031C136.441 71.9292 136.9 73.7725 135.886 72.6003C136.995 73.3036 137.628 72.3221 138.247 71.5793C137.73 71.7836 138.18 72.872 138.353 72.9721C139.657 73.4707 139.967 71.8632 141.223 71.9283C141.112 74.5156 143.849 73.8492 138.386 74.1824Z"
    fill="#093DB9"
  />
<path
    fill-rule="evenodd"
    clip-rule="evenodd"
    d="M113.174 121.593C113.75 122.217 114.143 122.464 113.416 123.096C112.768 122.527 112.254 122.435 113.174 121.593Z"
    fill="#22B5F5"
  />
<path
    fill-rule="evenodd"
    clip-rule="evenodd"
    d="M113.666 156.986C113.697 156.899 113.728 156.812 113.758 156.724C113.927 156.92 113.95 156.983 113.666 156.986Z"
    fill="#22B5F5"
  />
<path
    fill-rule="evenodd"
    clip-rule="evenodd"
    d="M160.121 168.367C158.649 169.737 158.542 168.909 157.562 167.927C158.511 166.932 158.959 167.792 160.121 168.367Z"
    fill="#CCCCCC"
  />
<path
    fill-rule="evenodd"
    clip-rule="evenodd"
    d="M148.807 170.692C147.868 169.789 148.232 169.008 149.121 168.76C150.296 169.38 150.013 169.996 148.807 170.692Z"
    fill="#CCCCCC"
  />
<path
    fill-rule="evenodd"
    clip-rule="evenodd"
    d="M77.1779 66.2848C76.6806 66.9676 74.4596 68.0826 75.1565 66.2639C75.3109 65.4598 73.9588 65.0409 75.5456 64.7361C76.2284 66.1791 75.3715 66.4793 77.1779 66.2848Z"
    fill="#1C64D0"
  />
<path
    fill-rule="evenodd"
    clip-rule="evenodd"
    d="M85.9987 62.2029C87.9638 60.2442 86.6832 65.3916 85.84 63.437C83.4029 62.4494 86.4426 63.1293 85.9987 62.2029Z"
    fill="#CCCCCC"
  />
<path
    fill-rule="evenodd"
    clip-rule="evenodd"
    d="M89.3617 65.9278C91.0989 64.4043 90.43 66.5759 90.6075 67.7731C89.5711 67.9779 89.5236 66.6672 89.3617 65.9278Z"
    fill="#1C64D0"
  />
<path
    fill-rule="evenodd"
    clip-rule="evenodd"
    d="M95.6499 64.1834C95.867 65.1354 94.9623 66.947 93.9758 65.5532C94.4954 65.1891 95.0592 63.9927 95.6499 64.1834Z"
    fill="#1C64D0"
  />
<path
    fill-rule="evenodd"
    clip-rule="evenodd"
    d="M77.3701 65.5487C77.7929 64.4869 78.5495 65.452 78.1388 66.2617C77.9011 66.0014 77.6861 65.7183 77.3701 65.5487Z"
    fill="#1C64D0"
  />
<path
    fill-rule="evenodd"
    clip-rule="evenodd"
    d="M103.599 54.7925C101.677 54.3027 102.165 55.3649 101.675 56.5971C100.728 53.1368 102.205 50.4396 103.599 54.7925Z"
    fill="#CCCCCC"
  />
<path
    fill-rule="evenodd"
    clip-rule="evenodd"
    d="M106.67 51.5491C106.616 52.8707 104.548 51.5378 104.012 50.9133C105.232 50.4932 106.169 49.0966 106.67 51.5491Z"
    fill="#CCCCCC"
  />
<path
    fill-rule="evenodd"
    clip-rule="evenodd"
    d="M101.975 43.8626C102.676 44.4579 102.52 45.6518 101.473 45.0808C101.643 44.6719 101.809 44.2674 101.975 43.8626Z"
    fill="#1C64D0"
  />
<path
    fill-rule="evenodd"
    clip-rule="evenodd"
    d="M108.274 56.0263C108.318 55.2145 108.665 54.3723 108.12 53.6699C109.808 54.4708 109.637 54.8772 108.274 56.0263Z"
    fill="#CCCCCC"
  />
<path
    fill-rule="evenodd"
    clip-rule="evenodd"
    d="M100.877 45.801C100.908 46.4486 100.939 47.096 100.968 47.7376C100.936 47.0882 100.906 46.4446 100.877 45.801Z"
    fill="#1C64D0"
  />
<path
    fill-rule="evenodd"
    clip-rule="evenodd"
    d="M89.182 76.9763C89.768 76.9414 91.1838 75.8517 91.2985 76.6085C89.987 77.7525 90.737 82.1815 88.9667 79.4852C88.7645 79.221 88.3231 78.7174 88.0404 78.3375C88.4195 77.9455 89.5057 78.0704 89.182 76.9763Z"
    fill="#1C64D0"
  />
<path
    fill-rule="evenodd"
    clip-rule="evenodd"
    d="M92.9954 74.9796C91.6435 72.8601 94.6471 72.9221 95.1421 74.2415C94.7451 75.4145 93.7943 74.9764 92.9954 74.9796Z"
    fill="#CCCCCC"
  />
<path
    fill-rule="evenodd"
    clip-rule="evenodd"
    d="M80.2152 105.411C79.8834 105.016 79.9334 104.792 80.4905 104.795C80.3982 105.001 80.3067 105.206 80.2152 105.411Z"
    fill="#22B5F5"
  />
<path
    fill-rule="evenodd"
    clip-rule="evenodd"
    d="M156.723 156.539C156.462 155.315 156.462 155.315 157.824 155.359C157.457 155.752 157.09 156.145 156.723 156.539Z"
    fill="#22B5F5"
  />
<path
    fill-rule="evenodd"
    clip-rule="evenodd"
    d="M154.809 158.727C154.994 158.51 155.18 158.293 155.366 158.077C155.181 158.293 154.995 158.51 154.809 158.727Z"
    fill="#22B5F5"
  />
<path
    fill-rule="evenodd"
    clip-rule="evenodd"
    d="M6.27888 169.369C6.34358 170.002 6.89426 170.576 6.22137 170.907C6.01234 170.235 5.30314 169.844 6.27888 169.369Z"
    fill="#CCCCCC"
  />
<path
    fill-rule="evenodd"
    clip-rule="evenodd"
    d="M67.1121 99.1611C70.8069 99.2551 81.4288 96.3502 80.0826 92.0187C74.6681 87.4657 67.4297 83.3212 60.654 88.0058C49.9325 93.7783 59.4144 98.7858 67.1121 99.1611ZM66.9482 101.366C50.3362 100.499 49.3236 87.9474 65.3801 84.0529C72.0697 82.9238 78.4194 86.5099 82.6854 91.4384C84.5982 96.5572 71.3542 101.766 66.9482 101.366Z"
    fill="#093DB9"
  />
<path
    fill-rule="evenodd"
    clip-rule="evenodd"
    d="M94.8324 73.6932C94.0515 73.6826 93.0023 72.3771 92.5919 74.1571C92.0215 73.1417 91.0736 73.332 90.0837 73.3582C89.9187 74.1769 90.7568 75.9946 89.3313 75.2461C89.9803 77.7836 88.6022 76.0933 87.4944 75.5126C89.6791 69.9023 89.115 72.9512 86.1854 71.3949C85.8234 71.7065 85.9482 72.8203 85.3385 72.5166C84.8409 71.0353 83.6743 71.0692 82.8608 70.0193C83.8775 70.7238 86.4678 68.3586 84.4552 68.6773C87.9706 66.7154 85.9933 71.1296 88.375 71.1803C89.9458 70.7006 90.6333 73.7759 92.1881 71.8216C94.2945 71.3056 92.2985 70.4071 92.0228 69.3059C93.0086 68.367 93.09 69.0033 94.3515 69.4524C94.6676 69.6596 96.3409 69.4618 94.735 70.4402C95.6291 71.862 93.7176 72.3812 94.8324 73.6932Z"
    fill="#093DB9"
  />
<path
    fill-rule="evenodd"
    clip-rule="evenodd"
    d="M58.24 68.3457C58.0473 68.444 58.165 68.5538 58.2306 68.6916C58.4235 68.5933 58.3056 68.4835 58.24 68.3457ZM56.908 67.6309C62.2466 69.2154 55.1537 69.4053 55.3329 72.2714C55.305 72.6836 55.192 73.4999 54.3476 73.1577C53.5572 72.8374 54.4675 72.3331 54.3553 72.2028C53.8636 70.5028 50.3762 70.5132 51.8399 68.9237C54.1402 65.3114 52.0577 73.8045 55.1267 70.1011C57.6555 69.4638 54.2083 67.6972 54.9918 66.6277C55.915 65.3444 56.0827 67.1311 56.908 67.6309Z"
    fill="#1C64D0"
  />
<path
    fill-rule="evenodd"
    clip-rule="evenodd"
    d="M45.9333 93.4748C46.6051 88.5389 42.5125 90.7278 46.4446 88.554C47.8526 88.3157 46.258 89.3833 46.9838 90.1137C48.5142 91.0184 46.4899 91.6 47.7248 92.7733C46.441 92.9746 46.2304 93.48 46.5787 94.6797C46.89 95.506 45.819 96.4167 45.6103 95.2084C45.6001 95.1221 45.1534 95.036 44.9097 95.0382C42.8278 95.0968 42.5952 93.0689 43.2981 91.6061C43.8562 90.8459 44.422 91.5274 44.8581 92.0154C43.519 92.8847 45.5616 92.6919 45.9333 93.4748Z"
    fill="#093DB9"
  />
<path
    fill-rule="evenodd"
    clip-rule="evenodd"
    d="M77.3701 65.5487C78.1741 66.3407 78.3829 66.1989 78.1379 65.0756C78.9855 64.5081 80.581 62.0751 81.3502 63.8238C80.9614 64.5523 76.6568 69.0586 77.3701 65.5487Z"
    fill="#093DB9"
  />
<path
    fill-rule="evenodd"
    clip-rule="evenodd"
    d="M49.7445 86.6638C48.1176 86.7376 47.4727 84.2721 45.9555 85.791C45.9102 85.8377 45.5516 85.6136 45.3755 85.4707C45.6219 84.717 47.453 83.8895 48.0515 84.6007C47.8311 85.9851 50.1228 85.887 49.7445 86.6638Z"
    fill="#CCCCCC"
  />
<path
    fill-rule="evenodd"
    clip-rule="evenodd"
    d="M44.965 81.6067C45.3033 79.7965 45.7831 79.8754 45.3545 77.9329C45.8027 77.8524 46.3768 78.4516 46.3694 78.7296C45.5205 80.0838 46.7862 81.0391 44.965 81.6067Z"
    fill="#1C64D0"
  />
<path
    fill-rule="evenodd"
    clip-rule="evenodd"
    d="M45.5399 68.6918C45.8642 67.4835 47.5948 65.1433 47.7305 67.5647C47.1814 68.0148 46.2021 69.7096 45.5399 68.6918Z"
    fill="#1C64D0"
  />
<path
    fill-rule="evenodd"
    clip-rule="evenodd"
    d="M73.9641 64.1953C72.6001 63.2975 73.1238 62.9009 74.0906 61.987C74.7671 62.3711 73.9811 63.4347 73.9641 64.1953Z"
    fill="#093DB9"
  />
<path
    fill-rule="evenodd"
    clip-rule="evenodd"
    d="M66.4354 64.0594C66.3746 64.1313 66.2402 64.2906 66.1058 64.4496C67.3407 63.2629 65.1496 63.8199 64.6787 62.7796C65.6299 62.0041 66.6787 62.8184 66.4354 64.0594Z"
    fill="#1C64D0"
  />
<path
    fill-rule="evenodd"
    clip-rule="evenodd"
    d="M81.1546 65.8685C82.1659 62.4589 82.0764 66.0795 83.1469 66.8077C83.1717 66.8189 83.0806 67.3043 82.9429 67.3758C81.8854 67.9508 81.6316 66.4186 81.1546 65.8685Z"
    fill="#093DB9"
  />
<path
    fill-rule="evenodd"
    clip-rule="evenodd"
    d="M56.0345 65.0643C54.86 66.1726 54.6319 64.329 54.0043 63.5889C54.5987 62.2012 55.2865 64.3865 56.0345 65.0643Z"
    fill="#CCCCCC"
  />
<path
    fill-rule="evenodd"
    clip-rule="evenodd"
    d="M87.1736 66.2353C87.5902 67.1336 87.0798 67.1677 86.2887 67.3203C84.222 66.9772 86.0604 64.4838 87.1736 66.2353Z"
    fill="#093DB9"
  />
<path
    fill-rule="evenodd"
    clip-rule="evenodd"
    d="M86.289 67.3205C86.7178 67.2344 87.1502 67.0818 87.5704 67.0159C88.7083 68.3956 84.8023 68.9068 86.289 67.3205Z"
    fill="#CCCCCC"
  />
<path
    fill-rule="evenodd"
    clip-rule="evenodd"
    d="M57.305 67.2299C57.2423 66.3795 58.2451 66.4643 58.8237 66.2107C59.6411 67.495 58.0221 67.2014 57.305 67.2299Z"
    fill="#CCCCCC"
  />
<path
    fill-rule="evenodd"
    clip-rule="evenodd"
    d="M53.6708 74.4213C53.7519 75.1974 54.6469 76.0901 53.813 76.4062C53.6212 75.6052 52.554 75.0131 53.6708 74.4213Z"
    fill="#CCCCCC"
  />
<path
    fill-rule="evenodd"
    clip-rule="evenodd"
    d="M88.0214 78.2749C87.8981 78.8211 87.6625 79.2251 88.2754 79.6038C87.1904 79.6581 86.7445 78.1608 88.0214 78.2749Z"
    fill="#CCCCCC"
  />
<path
    fill-rule="evenodd"
    clip-rule="evenodd"
    d="M43.8867 90.44C43.0954 90.9919 42.8827 90.0205 42.3617 89.8605C42.8177 88.376 43.6493 89.8264 43.8867 90.44Z"
    fill="#093DB9"
  />
<path
    fill-rule="evenodd"
    clip-rule="evenodd"
    d="M44.4822 65.455C44.8643 65.5475 45.7072 65.2589 45.8416 65.5863C45.4597 65.4941 44.6152 65.7828 44.4822 65.455Z"
    fill="#CCCCCC"
  />
<path
    fill-rule="evenodd"
    clip-rule="evenodd"
    d="M85.8409 72.0385C85.9574 71.8239 86.0739 71.609 86.1855 71.3944C86.0674 71.6091 85.9542 71.8239 85.8409 72.0385Z"
    fill="#1C64D0"
  />
<path
    fill-rule="evenodd"
    clip-rule="evenodd"
    d="M83.9349 63.4781C84.4612 63.9235 83.7475 64.0297 83.9889 63.4537C83.989 63.4537 83.9349 63.4781 83.9349 63.4781Z"
    fill="#093DB9"
  />
<path
    fill-rule="evenodd"
    clip-rule="evenodd"
    d="M56.8935 67.6169C57.0177 67.4821 57.2075 67.3563 57.2955 67.2208C57.1588 67.3378 57.0313 67.5533 56.8935 67.6169Z"
    fill="#CCCCCC"
  />
<path
    fill-rule="evenodd"
    clip-rule="evenodd"
    d="M43.8359 90.4633C44.1645 90.8603 43.5473 90.7467 43.8837 90.441C43.8866 90.4399 43.8359 90.4633 43.8359 90.4633Z"
    fill="#093DB9"
  />
<path
    fill-rule="evenodd"
    clip-rule="evenodd"
    d="M88.9008 79.4196C88.9837 79.3957 88.9948 79.4012 88.9666 79.4852C88.9659 79.4848 88.9008 79.4196 88.9008 79.4196Z"
    fill="#CCCCCC"
  />
<path
    fill-rule="evenodd"
    clip-rule="evenodd"
    d="M98.5646 159.532C101.247 157.549 104.312 151.506 107.333 156.218C104.989 157.69 100.708 160.346 98.5646 159.532Z"
    fill="#22B5F5"
  />
<path
    fill-rule="evenodd"
    clip-rule="evenodd"
    d="M64.2678 110.7C66.1722 110.268 67.9925 109.947 69.8345 110.818C68.3244 111.209 65.0256 111.807 64.2678 110.7Z"
    fill="#CCCCCC"
  />
<path
    fill-rule="evenodd"
    clip-rule="evenodd"
    d="M98.5627 159.899L98.4232 160.069C98.3864 159.937 98.5939 159.955 98.5627 159.899Z"
    fill="#22B5F5"
  />
<path
    fill-rule="evenodd"
    clip-rule="evenodd"
    d="M110.185 49.2717C110.035 48.5689 108.53 47.3836 108.308 48.5269C108.835 49.134 109.32 49.8241 110.185 49.2717ZM125.046 60.3703C144.653 64.8356 154.114 35.749 135.029 28.5425C123.719 23.5589 110.497 34.318 112.945 46.4534C113.111 48.0652 114.626 45.4327 114.598 46.7409C114.787 48.3739 112.842 46.4357 113.172 47.9259C114.313 54.0693 120.326 58.5939 125.046 60.3703ZM106.67 51.5492C106.632 50.512 106.002 50.0896 105.06 49.9927C102.631 47.5941 107.17 48.5159 104.602 44.4516C107.823 45.2895 105.687 47.4812 109.84 46.6379C110.582 46.9374 110.596 46.3504 110.555 45.7981C108.137 22.8977 143.021 17.3977 147.58 40.1173C153.174 55.3202 128.503 70.0181 120.249 59.0783C116.073 60.926 113.075 52.6902 111.026 49.6861C110.356 50.1239 110.71 52.2887 109.672 51.0536C108.874 48.8865 108.563 50.9088 107.335 51.5513C107.119 51.5272 106.89 51.5551 106.67 51.5492Z"
    fill="#093DB9"
  />
<path
    fill-rule="evenodd"
    clip-rule="evenodd"
    d="M118.553 71.4644C119.871 70.4205 118.221 70.7446 117.366 69.562C116.697 69.1245 116.864 70.872 116.033 70.035C114.839 68.7909 116.906 67.2004 116.314 66.046C118.143 65.9117 117.41 67.3123 119.855 66.909C115.942 67.7775 122.984 72.3352 118.553 71.4644Z"
    fill="#CCCCCC"
  />
<path
    fill-rule="evenodd"
    clip-rule="evenodd"
    d="M102.885 32.3424C103.611 32.2569 104.444 32.4522 105.116 32.1681C105.539 30.3207 106.402 31.2193 106.659 32.743C104.054 33.6091 106.002 35.9475 104.395 37.5009C103.146 36.768 104.599 36.1379 104.411 35.7072C105.026 34.612 103.691 34.844 103.825 34.0002C103.94 32.3104 99.5965 36.1823 102.885 32.3424Z"
    fill="#093DB9"
  />
<path
    fill-rule="evenodd"
    clip-rule="evenodd"
    d="M152.594 63.8099C152.099 64.823 151.263 64.9571 151.65 66.1102C151.624 69.2617 148.321 64.6132 150.952 63.7035C151.687 63.3411 150.627 63.4028 150.415 63.2238C149.504 61.8487 151.99 63.5036 152.594 63.8099Z"
    fill="#093DB9"
  />
<path
    fill-rule="evenodd"
    clip-rule="evenodd"
    d="M104.395 37.5008C104.834 36.4724 105.25 36.6101 106.078 37.1958C103.21 36.7776 106.767 39.7226 106.869 41.0472C105.4 42.384 103.094 38.7391 104.395 37.5008Z"
    fill="#1C64D0"
  />
<path
    fill-rule="evenodd"
    clip-rule="evenodd"
    d="M119.049 67.4474C121.783 66.1194 120.323 70.3153 122.533 71.1868C121.978 72.2594 121.023 71.8906 120.161 71.844C119.221 70.2215 121.885 70.295 119.568 69.5088C118.078 68.7402 120.712 68.1819 119.049 67.4474Z"
    fill="#093DB9"
  />
<path
    fill-rule="evenodd"
    clip-rule="evenodd"
    d="M108.25 56.0033C108.015 56.8475 107.903 57.6609 108.249 58.5411C108.384 59.3903 106.628 60.3978 106.725 58.8119C106.743 58.5281 106.799 57.5465 105.848 58.029C105.375 57.2992 107.402 56.2017 108.274 56.0263C108.273 56.0263 108.25 56.0033 108.25 56.0033Z"
    fill="#093DB9"
  />
<path
    fill-rule="evenodd"
    clip-rule="evenodd"
    d="M105.954 25.0077C105.561 27.0909 108.468 24.471 107.133 27.2268C106.79 28.3188 105.607 25.0695 104.407 25.3752C102.761 25.5136 104.346 23.0485 105.47 23.758C107.069 24.3678 103.906 24.1511 105.954 25.0077Z"
    fill="#1C64D0"
  />
<path
    fill-rule="evenodd"
    clip-rule="evenodd"
    d="M141.223 71.9283C138.93 72.3602 141.557 71.7883 141.116 70.58C141.893 70.1934 142.576 71.468 143.053 70.3179C144.587 71.2356 142.199 72.1006 141.223 71.9283Z"
    fill="#1C64D0"
  />
<path
    fill-rule="evenodd"
    clip-rule="evenodd"
    d="M110.449 20.617C110.244 21.5674 109.643 21.9615 108.85 22.3787C109.018 21.369 109.708 18.4243 110.449 20.617Z"
    fill="#CCCCCC"
  />
<path
    fill-rule="evenodd"
    clip-rule="evenodd"
    d="M108.195 67.4083C109.045 67.4341 109.896 67.4598 110.741 67.4793C109.492 68.1473 109.998 67.6539 109.593 68.9697C109.749 67.8619 108.59 68.8288 108.405 68.2178C108.383 67.916 107.617 67.4273 108.195 67.4083Z"
    fill="#1C64D0"
  />
<path
    fill-rule="evenodd"
    clip-rule="evenodd"
    d="M105.954 25.0077C103.886 24.0886 107.342 24.0512 108.212 23.5558C107.821 24.7543 107.25 25.2597 105.954 25.0077Z"
    fill="#093DB9"
  />
<path
    fill-rule="evenodd"
    clip-rule="evenodd"
    d="M124.841 67.8274C126.019 68.6982 126.361 69.0172 125.151 69.9695C124.587 69.2506 124.693 68.8155 124.841 67.8274Z"
    fill="#093DB9"
  />
<path
    fill-rule="evenodd"
    clip-rule="evenodd"
    d="M102.983 45.9002C103.287 46.8042 103.226 47.8601 102.429 48.3961C102.109 47.5438 102.105 46.4746 102.983 45.9002Z"
    fill="#1C64D0"
  />
<path
    fill-rule="evenodd"
    clip-rule="evenodd"
    d="M109.457 44.2077C108.323 44.5523 107.814 45.3876 106.987 44.6813C107.983 44.1563 108.178 43.3368 109.457 44.2077Z"
    fill="#CCCCCC"
  />
<path
    fill-rule="evenodd"
    clip-rule="evenodd"
    d="M147.465 73.3008C146.813 73.8218 146.466 73.3782 145.997 72.9128C146.51 72.4135 147.24 72.6676 147.465 73.3008Z"
    fill="#CCCCCC"
  />
<path
    fill-rule="evenodd"
    clip-rule="evenodd"
    d="M104.994 27.3188C104.352 27.6729 104.013 28.3325 103.328 27.9121C103.614 26.9335 104.068 27.1468 104.994 27.3188Z"
    fill="#CCCCCC"
  />
<path
    fill-rule="evenodd"
    clip-rule="evenodd"
    d="M101.311 34.6346C101.548 34.541 101.784 34.447 102.018 34.3546C101.829 34.9554 101.78 35.2421 101.311 34.6346Z"
    fill="#CCCCCC"
  />
<path
    fill-rule="evenodd"
    clip-rule="evenodd"
    d="M102.892 33.7716C103.393 33.1726 104.07 33.0166 103.825 34.0001C103.515 33.9222 103.204 33.8469 102.892 33.7716Z"
    fill="#CCCCCC"
  />
<path
    fill-rule="evenodd"
    clip-rule="evenodd"
    d="M104.347 28.9487C103.897 29.8424 103.822 29.4823 103.51 28.8151C103.728 28.4846 104.115 28.6253 104.347 28.9487Z"
    fill="#CCCCCC"
  />
<path
    fill-rule="evenodd"
    clip-rule="evenodd"
    d="M102.885 32.3424C102.321 32.7926 102.276 32.2024 102.046 31.7558C102.326 31.9513 102.605 32.1469 102.885 32.3424Z"
    fill="#1C64D0"
  />
<path
    fill-rule="evenodd"
    clip-rule="evenodd"
    d="M104.411 35.7072C104.479 35.6786 104.528 35.7151 104.556 35.8102C104.318 35.8927 104.193 35.9825 104.411 35.7072Z"
    fill="#1C64D0"
  />
<path
    fill-rule="evenodd"
    clip-rule="evenodd"
    d="M107.317 51.5419C107.317 51.5419 107.335 51.5511 107.335 51.5513C107.335 51.5515 107.317 51.5419 107.317 51.5419Z"
    fill="#CCCCCC"
  />
<path
    fill-rule="evenodd"
    clip-rule="evenodd"
    d="M116.067 65.6317L116.037 65.5593C116.035 65.5666 116.115 65.6479 116.067 65.6317Z"
    fill="#CCCCCC"
  />
<path
    fill-rule="evenodd"
    clip-rule="evenodd"
    d="M136.637 73.1846C136.549 72.3798 137.082 72.2267 137.644 72.403C139.232 73.2277 137.687 74.16 136.637 73.1846Z"
    fill="#CCCCCC"
  />
<path
    fill-rule="evenodd"
    clip-rule="evenodd"
    d="M90.0421 67.7754C90.8901 67.559 90.616 68.4605 90.7581 69.0353C89.7402 69.0236 89.8884 68.5335 90.0421 67.7754Z"
    fill="#093DB9"
  />
<path
    fill-rule="evenodd"
    clip-rule="evenodd"
    d="M103.873 33.2835C103.73 33.2803 103.588 33.2772 103.448 33.2733C103.591 33.2763 103.732 33.2797 103.873 33.2835Z"
    fill="#1C64D0"
  />
<path
    fill-rule="evenodd"
    clip-rule="evenodd"
    d="M71.9163 92.6981C72.3203 100.911 61.915 99.378 61.378 92.2671C61.9226 85.4241 72.0665 85.5376 71.9163 92.6981Z"
    fill="#093DB9"
  />
<path
    fill-rule="evenodd"
    clip-rule="evenodd"
    d="M119.134 43.5371C122.036 44.4344 123.385 49.4258 126.346 49.3038C130.329 45.8111 134.35 42.2587 137.92 38.3428C140.048 36.0872 141.409 39.9064 139.069 40.9799C133.888 43.9078 130.32 51.6636 125.057 52.9506C123.116 51.649 115.415 45.0394 119.134 43.5371Z"
    fill="#093DB9"
  />
</svg>
